<?xml version="1.0" standalone="no"?>
<!DOCTYPE svg PUBLIC "-//W3C//DTD SVG 20010904//EN"
 "http://www.w3.org/TR/2001/REC-SVG-20010904/DTD/svg10.dtd">
<svg version="1.0" xmlns="http://www.w3.org/2000/svg"
 width="260.000000pt" height="260.000000pt" viewBox="0 0 260.000000 260.000000"
 preserveAspectRatio="xMidYMid meet">
<metadata>
Created by potrace 1.11, written by Peter Selinger 2001-2013
</metadata>
<g transform="translate(0.000000,260.000000) scale(0.100000,-0.100000)"
fill="#000000" stroke="none">
<path d="M1238 1678 l-95 -153 -153 -3 -153 -3 -75 -67 -76 -67 182 -5 182 -5
-53 -87 -52 -87 -440 -1 -440 -1 75 -69 75 -69 318 -1 c174 0 317 -2 317 -4 0
-2 -39 -67 -86 -143 -48 -76 -89 -144 -91 -150 -4 -10 19 -13 95 -13 l101 0
96 155 96 155 95 0 c73 0 93 -3 88 -12 -4 -7 -43 -70 -86 -139 -43 -70 -81
-134 -84 -143 -5 -14 6 -16 93 -16 l100 0 95 153 95 152 156 5 156 5 66 65 66
65 -175 5 -176 5 53 87 52 87 440 1 440 1 -75 69 -75 69 -317 1 c-175 0 -318
2 -318 4 0 2 39 67 86 143 48 76 89 144 91 151 4 9 -19 12 -95 12 l-101 0 -96
-155 -96 -155 -95 0 c-73 0 -93 3 -88 13 4 6 43 69 86 138 43 70 81 134 84
143 5 14 -6 16 -93 16 l-100 0 -95 -152z m191 -335 c-13 -21 -38 -62 -56 -90
l-34 -53 -95 0 c-73 0 -93 3 -88 13 7 10 29 46 90 145 13 20 22 22 110 22 l96
0 -23 -37z"/>
</g>
</svg>
