<svg width="45" height="29" viewBox="0 0 45 29" fill="none" xmlns="http://www.w3.org/2000/svg">
<path d="M40.6383 4.46232H29.3629V1.66161H40.6392V4.46232H40.6383ZM21.8566 15.9471C22.5842 17.074 22.9477 18.4422 22.9477 20.0486C22.9477 21.7098 22.5378 23.2 21.7039 24.5163C21.1734 25.3874 20.5147 26.1232 19.7232 26.7156C18.8318 27.4006 17.7765 27.8704 16.5633 28.1214C15.3463 28.3728 14.029 28.4998 12.61 28.4998H0V0.5H13.5223C16.9308 0.555449 19.3472 1.54297 20.7741 3.48233C21.6303 4.67177 22.0546 6.09901 22.0546 7.75799C22.0546 9.46981 21.6252 10.8395 20.7606 11.8802C20.2797 12.4636 19.5692 12.9944 18.6287 13.4735C20.0533 13.995 21.1342 14.8163 21.8566 15.9471ZM6.45744 11.5389H12.3823C13.5999 11.5389 14.5842 11.3075 15.3423 10.8448C16.0999 10.3829 16.4779 9.56187 16.4779 8.383C16.4779 7.08057 15.9773 6.21609 14.9739 5.80001C14.1114 5.51094 13.0079 5.36206 11.6688 5.36206H6.45744V11.5389ZM17.0484 19.6486C17.0484 18.1942 16.4539 17.1887 15.2674 16.6491C14.6039 16.3425 13.6677 16.1858 12.4674 16.1746H6.45744V23.6364H12.3744C13.59 23.6364 14.5309 23.4772 15.2098 23.1453C16.4343 22.5349 17.0484 21.3733 17.0484 19.6486ZM44.8218 15.0935C44.958 16.0096 45.0196 17.3387 44.9946 19.0759H30.3918C30.4723 21.0916 31.1681 22.5011 32.4878 23.3077C33.2837 23.8136 34.2486 24.0606 35.3785 24.0606C36.57 24.0606 37.541 23.7594 38.2886 23.1402C38.6959 22.812 39.0551 22.3488 39.3657 21.7643H44.7182C44.578 22.9548 43.9335 24.1622 42.7754 25.3892C40.981 27.3394 38.4644 28.3173 35.2325 28.3173C32.5625 28.3173 30.2095 27.4926 28.1671 25.8491C26.1315 24.1998 25.1091 21.5251 25.1091 17.8147C25.1091 14.3353 26.027 11.6722 27.8688 9.81851C29.7175 7.96138 32.1033 7.03705 35.0441 7.03705C36.7871 7.03705 38.3585 7.34861 39.7603 7.97498C41.1577 8.60197 42.3126 9.58876 43.2222 10.945C44.0454 12.1393 44.5747 13.5203 44.8218 15.0935ZM39.5533 15.616C39.4552 14.2222 38.9898 13.1673 38.1519 12.4464C37.3209 11.7235 36.2828 11.3605 35.0441 11.3605C33.6959 11.3605 32.6549 11.7485 31.9152 12.5109C31.1706 13.2718 30.7072 14.3063 30.5173 15.6161H39.5533V15.616Z" fill="black"/>
</svg>
