<svg width="30" height="30" viewBox="0 0 30 30" fill="none" xmlns="http://www.w3.org/2000/svg">
<path d="M10.3047 11.5898C11.746 11.3085 13.1524 10.9219 14.4882 10.5C12.7129 7.24799 10.5157 4.31244 7.93164 1.83398C4.13482 3.87299 1.24604 7.51172 0.314453 11.8535C3.10943 12.416 6.5606 12.3457 10.3047 11.5898Z" fill="black"/>
<path d="M24.5263 3.52143L24.2802 4.48822C23.8936 6.0351 20.624 8.24994 16.335 9.84961L16.1415 9.91986C14.4013 6.63275 12.204 3.64447 9.6377 1.06055C11.29 0.410156 13.1005 0 14.9814 0C18.3388 0 21.4677 1.18359 23.9638 3.06439C24.1571 3.20502 24.3506 3.3457 24.5263 3.52143Z" fill="black"/>
<path d="M16.8267 15.7207C16.3697 14.4727 15.8599 13.2598 15.2974 12.082C13.8209 12.5743 12.2565 12.9962 10.6568 13.3125C8.91656 13.6641 6.64904 13.9805 4.25842 13.9805C2.88726 13.9805 1.42242 13.875 0.033808 13.6113C-0.0014068 14.0683 0.0396088 14.5254 0.0396088 15C0.0396088 19.623 2.14898 23.7538 5.43609 26.496C5.45367 26.3906 5.47131 26.2851 5.48877 26.1796C6.1568 22.1368 10.8326 17.8653 16.8267 15.7207Z" fill="black"/>
<path d="M17.4072 17.373C18.6025 21.1348 19.2705 25.2188 19.3407 29.3497C17.9697 29.7716 16.4931 30.0001 14.9814 30.0001C12.1513 30.0001 9.49705 29.1505 7.24699 27.7793C7.1591 27.3574 7.1591 26.918 7.22953 26.4609C7.77445 23.1387 12.1338 19.2891 17.4072 17.373Z" fill="black"/>
<path d="M29.8232 17.1264C29.085 22.2769 25.6689 26.5834 21.0635 28.6401C20.9404 24.562 20.2372 20.5893 19.0596 16.8451C22.9971 15.7553 26.7296 15.8784 29.8232 17.1264Z" fill="black"/>
<path d="M29.9814 14.9999V15.3163C26.6241 14.0682 22.6455 14.0156 18.4971 15.1933C18.04 13.9277 17.5127 12.6973 16.9502 11.502C19.8395 10.4171 25.2317 7.92029 25.9854 4.91016C28.4288 7.56434 29.9814 11.1151 29.9814 14.9999Z" fill="black"/>
</svg>
