<svg width="12" height="24" viewBox="0 0 12 24" fill="none" xmlns="http://www.w3.org/2000/svg">
<path d="M2.42086 4.64804C2.42086 5.25285 2.42086 7.95237 2.42086 7.95237H0V11.9929H2.42086V24H7.39381V11.9932H10.7309C10.7309 11.9932 11.0434 10.0558 11.1949 7.93747C10.7606 7.93747 7.41262 7.93747 7.41262 7.93747C7.41262 7.93747 7.41262 5.58681 7.41262 5.17478C7.41262 4.76187 7.95482 4.20644 8.49072 4.20644C9.02561 4.20644 10.1545 4.20644 11.2002 4.20644C11.2002 3.65631 11.2002 1.75551 11.2002 1.44334e-08C9.80429 1.44334e-08 8.21624 1.44334e-08 7.51624 1.44334e-08C2.29793 -0.000278983 2.42086 4.04429 2.42086 4.64804Z" fill="black"/>
</svg>
