<svg width="24" height="24" viewBox="0 0 24 24" fill="none" xmlns="http://www.w3.org/2000/svg">
<path d="M17.3767 0H6.62299C2.97108 0 0 2.97122 0 6.62313V17.3769C0 21.0289 2.97108 24 6.62299 24H17.3767C21.0289 24 24 21.0288 24 17.3769V6.62313C24.0001 2.97122 21.0289 0 17.3767 0ZM21.8707 17.3769C21.8707 19.8548 19.8548 21.8706 17.3769 21.8706H6.62299C4.14522 21.8707 2.1294 19.8548 2.1294 17.3769V6.62313C2.1294 4.14537 4.14522 2.1294 6.62299 2.1294H17.3767C19.8546 2.1294 21.8706 4.14537 21.8706 6.62313V17.3769H21.8707Z" fill="black"/>
<path d="M11.9996 5.81592C8.58961 5.81592 5.81543 8.5901 5.81543 12.0001C5.81543 15.41 8.58961 18.184 11.9996 18.184C15.4096 18.184 18.1838 15.41 18.1838 12.0001C18.1838 8.5901 15.4096 5.81592 11.9996 5.81592ZM11.9996 16.0545C9.7639 16.0545 7.94483 14.2357 7.94483 12C7.94483 9.7641 9.76376 7.94517 11.9996 7.94517C14.2355 7.94517 16.0544 9.7641 16.0544 12C16.0544 14.2357 14.2353 16.0545 11.9996 16.0545Z" fill="black"/>
<path d="M18.4434 4.0105C18.0331 4.0105 17.6301 4.17659 17.3404 4.46761C17.0492 4.75721 16.8818 5.16037 16.8818 5.57206C16.8818 5.98246 17.0493 6.38548 17.3404 6.6765C17.63 6.9661 18.0331 7.13361 18.4434 7.13361C18.8551 7.13361 19.2568 6.9661 19.5478 6.6765C19.8389 6.38548 20.005 5.98232 20.005 5.57206C20.005 5.16037 19.8389 4.75721 19.5478 4.46761C19.2582 4.17659 18.8551 4.0105 18.4434 4.0105Z" fill="black"/>
</svg>
