<svg width="24" height="36" viewBox="0 0 24 36" fill="none" xmlns="http://www.w3.org/2000/svg">
<path d="M23.0146 12.1386C23.1241 12.1386 23.2129 12.0648 23.2129 11.9736V11.4676H23.8014C23.9109 11.4676 23.9997 11.3938 23.9997 11.3026V10.2359C23.9997 10.1447 23.9109 10.0709 23.8014 10.0709H20.6089C20.101 6.99457 15.3006 5.11359 13.0967 4.4056C13.1311 4.31828 13.1501 4.22556 13.1501 4.12899C13.1501 3.75449 12.8713 3.43256 12.4715 3.28804C12.614 3.18476 12.7042 3.03573 12.7042 2.86943C12.7042 2.65012 12.5479 2.46006 12.32 2.36679L12.2167 1.68444C12.6602 1.60217 12.9916 1.27353 12.9916 0.879889V0.824896C12.9916 0.369333 12.5478 0 12 0C11.4522 0 11.0084 0.369333 11.0084 0.824896V0.879889C11.0084 1.27353 11.34 1.60217 11.7833 1.68444L11.68 2.36679C11.452 2.46017 11.2958 2.65012 11.2958 2.86943C11.2958 3.03573 11.386 3.18465 11.5283 3.28804C11.1288 3.43245 10.8499 3.75438 10.8499 4.12899C10.8499 4.22545 10.8689 4.31828 10.9033 4.4056C8.69924 5.11359 3.8989 6.99457 3.39106 10.0709H0.198323C0.0888487 10.0709 0 10.1447 0 10.2359V11.3026C0 11.3938 0.0888487 11.4676 0.198323 11.4676H0.786814V11.9736C0.786814 12.0648 0.875663 12.1386 0.985137 12.1386H1.41761V29.9874H0.985137C0.875663 29.9874 0.786814 30.0612 0.786814 30.1524V30.6581H0.198323C0.0888487 30.6581 0 30.7319 0 30.8231V31.8901C0 31.9813 0.0888487 32.0551 0.198323 32.0551H4.4316C6.75462 34.6937 12.0001 36 12.0001 36C12.0001 36 17.2456 34.6937 19.5687 32.0551H23.8017C23.9112 32.0551 24 31.9813 24 31.8901V30.8231C24 30.7319 23.9112 30.6581 23.8017 30.6581H23.2132V30.1524C23.2132 30.0612 23.1243 29.9874 23.0149 29.9874H22.5825V12.1386H23.0146ZM7.11438 28.8581H3.57167V17.5221C3.57167 14.8026 5.34282 13.0205 5.34282 13.0205C5.34282 13.0205 7.11424 14.8026 7.11424 17.5221V28.8581H7.11438ZM15.0871 28.8581H8.91251V17.5221C8.91251 14.8026 12 13.0205 12 13.0205C12 13.0205 15.0872 14.8026 15.0872 17.5221V28.8581H15.0871ZM20.4281 28.8581H16.8854V17.5221C16.8854 14.8026 18.6565 13.0205 18.6565 13.0205C18.6565 13.0205 20.4279 14.8026 20.4279 17.5221V28.8581H20.4281Z" fill="black"/>
</svg>
