<?xml version="1.0" encoding="utf-8"?>
<!-- Generator: Adobe Illustrator 21.0.2, SVG Export Plug-In . SVG Version: 6.00 Build 0)  -->
<svg version="1.1" id="Layer_1" xmlns="http://www.w3.org/2000/svg" xmlns:xlink="http://www.w3.org/1999/xlink" x="0px" y="0px"
	 viewBox="0 0 30 56.3" style="enable-background:new 0 0 30 56.3;" xml:space="preserve">
<ellipse cx="15" cy="8.9" rx="1.2" ry="1.1"/>
<ellipse cx="15" cy="5" rx="1.2" ry="1.1"/>
<ellipse cx="15" cy="1.1" rx="1.2" ry="1.1"/>
<path d="M28.8,26.2c0.1,0,0.2-0.1,0.2-0.2v-0.7h0.7c0.1,0,0.2-0.1,0.2-0.2v-1.3c0-0.1-0.1-0.2-0.2-0.2h-4c-0.6-3.9-6.6-6.3-9.4-7.2
	c0-0.1,0.1-0.2,0.1-0.3c0-0.5-0.3-0.9-0.8-1.1c0.2-0.1,0.3-0.3,0.3-0.5c0-0.3-0.2-0.5-0.5-0.6L15.3,13c0.6-0.1,1-0.5,1-1v-0.1
	c0-0.6-0.6-1-1.2-1s-1.2,0.5-1.2,1V12c0,0.5,0.4,0.9,1,1l-0.1,0.9c-0.3,0.1-0.5,0.4-0.5,0.6s0.1,0.4,0.3,0.5
	c-0.5,0.2-0.8,0.6-0.8,1.1c0,0.1,0,0.2,0.1,0.3c-2.8,0.9-8.8,3.3-9.4,7.2h-4c-0.1,0-0.2,0.1-0.2,0.2v1.3c-0.3,0.1-0.2,0.2-0.1,0.2H1
	v0.6c0,0.1,0.1,0.2,0.2,0.2h0.5v22.5H1.2c-0.1,0-0.2,0.1-0.2,0.2v0.6H0.2c-0.1,0-0.2,0.1-0.2,0.2v1.3c0,0.3,0.1,0.4,0.2,0.4h5.3
	c2.9,3.3,9.5,5,9.5,5s6.6-1.7,9.5-5h5.3c0.1,0,0.2-0.1,0.2-0.2v-1.3c0-0.1-0.1-0.2-0.2-0.2H29V49c0-0.1-0.1-0.2-0.2-0.2h-0.5V26.2
	H28.8z M8.9,47.3H4.5V33c0-3.4,2.2-5.7,2.2-5.7s2.2,2.3,2.2,5.7V47.3L8.9,47.3z M18.9,47.3h-7.7V33c0-3.4,3.9-5.7,3.9-5.7
	S19,29.6,19,33L18.9,47.3L18.9,47.3z M25.5,47.3h-4.4V33c0-3.4,2.2-5.7,2.2-5.7s2.2,2.3,2.2,5.7L25.5,47.3L25.5,47.3z"/>
</svg>
