<?xml version="1.0" encoding="utf-8"?>
<!-- Generator: Adobe Illustrator 21.0.2, SVG Export Plug-In . SVG Version: 6.00 Build 0)  -->
<svg version="1.1" id="Layer_1" xmlns="http://www.w3.org/2000/svg" xmlns:xlink="http://www.w3.org/1999/xlink" x="0px" y="0px"
	 viewBox="0 0 46.5 20.2" enable-background="new 0 0 46.5 20.2" xml:space="preserve">
<path d="M11.4,20l-0.1,0.2h0.2h3.4H15l0,0l3.7-5.9h3.9L19,20l-0.1,0.2h0.2h3.4h0.1l0,0l3.7-5.9H32h0l0,0l2.4-2.2l0.2-0.2h-0.3h-6.6
	L30,8.3h16.2h0.3l-0.2-0.2L44,5.9l0,0h0H31.5l3.6-5.8L35.2,0H35h-3.4h-0.1l0,0l-3.7,5.9h-3.9l3.6-5.8L27.6,0h-0.2H24h-0.1l0,0
	l-3.7,5.9h-5.8h0l0,0L12,8.1l-0.2,0.2H12h6.7l-2.3,3.6H0.3H0l0.2,0.2l2.4,2.2l0,0h0H15L11.4,20z M20.2,11.9l2.3-3.6h3.9l-2.3,3.6
	H20.2z"/>
</svg>
