<svg width="48" height="22" viewBox="0 0 48 22" fill="none" xmlns="http://www.w3.org/2000/svg">
<path d="M12.167 20.9471L12.0716 21.1H12.2518H15.6906H15.7461L15.7754 21.0529L19.4326 15.1902H23.3377L19.7466 20.9471L19.6512 21.1H19.8314H23.2702H23.3256L23.355 21.0529L27.0122 15.1902H32.7414H32.7807L32.8094 15.1636L35.1665 12.9781L35.3535 12.8048H35.0985H28.4997L30.7575 9.18348H47H47.2559L47.0678 9.00997L44.7107 6.83625L44.682 6.80976H44.6429H32.2419L35.833 1.05293L35.9284 0.9H35.7482H32.311H32.2555L32.2262 0.947057L28.5674 6.80976H24.6623L28.2535 1.05293L28.3489 0.9H28.1686H24.7298H24.6744L24.645 0.947073L20.9878 6.80976H15.1474H15.1082L15.0795 6.83634L12.7208 9.01741L12.5332 9.19083H12.7887H19.5019L17.2441 12.8121H1H0.744437L0.932133 12.9856L3.28923 15.1637L3.31797 15.1902H3.3571H15.7581L12.167 20.9471ZM20.9185 12.8165L23.1764 9.19524H27.0815L24.8237 12.8165H20.9185Z" fill="white" stroke="white" stroke-width="0.2"/>
</svg>
