<svg xmlns="http://www.w3.org/2000/svg" viewBox="0 0 1271.38 136.08"><defs><style>.cls-1{fill:#231f20;}</style></defs><title>Asset 2</title><g id="Layer_2" data-name="Layer 2"><g id="Layer_2-2" data-name="Layer 2"><path class="cls-1" d="M70.84,136.08H92.49L115.7,95.87h26.07l-23.21,40.21h21.65l23.21-40.21h36.42L214.68,81H172l15-26H289.61L274.77,40.21H195.56L218.77,0H197.13L173.91,40.21H147.84L171.05,0H149.4L126.19,40.21H89.07L74.22,55.05h43.4l-15,26H0L14.84,95.87H94.05Zm68.43-81h26.07l-15,26H124.27Z"/><path class="cls-1" d="M376.51,43.34v62.43H362.07V43.34H344V30.59h51.2V43.34Z"/><path class="cls-1" d="M466.57,105.77l-5.78-19.32H438.54l-5.81,19.32h-15l24.79-75.18H456.8l24.8,75.18ZM457.44,73.7l-7.78-26.06L441.88,73.7Z"/><path class="cls-1" d="M514.65,55.43c0-17.38,11.44-26.41,27.53-26.41,12.81,0,21.15,6,24.58,15.28l-11.43,4.9c-2.63-5.08-6.07-7.43-12.83-7.43-8.67,0-13.41,3.78-13.41,13.66V81.65c0,9.41,6.09,12.46,13,12.46s12.35-3,12.35-12.46V75.72H542.83V63.66h26v42.11H558.33l-.53-6.35c-4,5.22-10.89,7.42-17.65,7.42-12.23,0-25.5-7.64-25.5-25.19Z"/><path class="cls-1" d="M661.82,105.77V63.33L647.74,98.68H637.35l-14-35.35v42.44H609V30.59h14.66l18.93,46.89L661.5,30.59h14.67v75.18Z"/><path class="cls-1" d="M731.41,43.34V61.85H763V74.6H731.41V93h34.78v12.75H717V30.59h48.66V43.34Z"/><path class="cls-1" d="M813.75,83.81c.1,5.94,3.51,10.21,13.77,10.21,8.53,0,12.84-3.64,12.84-9.37,0-6.3-5.79-7.58-14.91-10.33-14.35-4.28-24.16-9-24.16-23,0-13.76,9.21-22,25.16-22,15.79,0,25.6,8.16,25.67,22.6H838.39c-.06-7.19-5-9.94-11.94-9.94s-11.17,3.47-11.17,8.22c0,5,3.37,7.45,15.06,10.38,17.49,4.25,24,11.62,24,24,0,11.53-7.13,22.48-26.19,22.48-17.21,0-28-9.15-28.05-23.25Z"/><path class="cls-1" d="M919.5,43.34v62.43H905.06V43.34H887V30.59h51.2V43.34Z"/><path class="cls-1" d="M1029.21,81.64c0,18.82-15,25.2-27.25,25.2s-27.43-6.34-27.43-25.2V30.58H989V81.64c0,9.41,6.09,12.47,13,12.47s12.82-3,12.82-12.47V30.58h14.43Z"/><path class="cls-1" d="M1095.39,30.59c18.23,0,27.61,11.75,27.61,26.31v25c0,18.24-12.92,23.84-25.78,23.84h-28V30.59ZM1083.67,93h13.55c7.37,0,11.35-2.22,11.35-11.09v-25c0-8.57-4.23-13.56-13.18-13.56h-11.72Z"/><path class="cls-1" d="M1162.67,105.77V30.59h14.44v75.18Z"/><path class="cls-1" d="M1216.7,55.48c0-17.37,11.44-26.4,27.52-26.4,17.41,0,27.16,10.81,27.16,26.5V81.7c0,18.82-15,25.25-27.25,25.25s-27.43-6.39-27.43-25.25Zm40.24.1c0-9.16-4.21-13.75-12.72-13.75s-13.08,3.9-13.08,13.65V81.7c0,9.41,6.09,12.47,13,12.47s12.81-3,12.81-12.47Z"/></g></g></svg>