<svg xmlns="http://www.w3.org/2000/svg" xmlns:xlink="http://www.w3.org/1999/xlink"><defs><style>.cls-1{fill:#231f20;}</style></defs><symbol id="arrow-menu" viewBox="0 0 30 20">
<path d="M0,11.7h23.7l-6,6L20,20l10-10L20,0l-2.3,2.3l6,6L0,8.3L0,11.7z"/>
</symbol><symbol id="facebook" viewBox="0 0 12 24">
<path d="M2.42086 4.64804C2.42086 5.25285 2.42086 7.95237 2.42086 7.95237H0V11.9929H2.42086V24H7.39381V11.9932H10.7309C10.7309 11.9932 11.0434 10.0558 11.1949 7.93747C10.7606 7.93747 7.41262 7.93747 7.41262 7.93747C7.41262 7.93747 7.41262 5.58681 7.41262 5.17478C7.41262 4.76187 7.95482 4.20644 8.49072 4.20644C9.02561 4.20644 10.1545 4.20644 11.2002 4.20644C11.2002 3.65631 11.2002 1.75551 11.2002 1.44334e-08C9.80429 1.44334e-08 8.21624 1.44334e-08 7.51624 1.44334e-08C2.29793 -0.000278983 2.42086 4.04429 2.42086 4.64804Z" fill="black"/>
</symbol><symbol id="instagram" viewBox="0 0 24 24">
<path d="M17.3767 0H6.62299C2.97108 0 0 2.97122 0 6.62313V17.3769C0 21.0289 2.97108 24 6.62299 24H17.3767C21.0289 24 24 21.0288 24 17.3769V6.62313C24.0001 2.97122 21.0289 0 17.3767 0ZM21.8707 17.3769C21.8707 19.8548 19.8548 21.8706 17.3769 21.8706H6.62299C4.14522 21.8707 2.1294 19.8548 2.1294 17.3769V6.62313C2.1294 4.14537 4.14522 2.1294 6.62299 2.1294H17.3767C19.8546 2.1294 21.8706 4.14537 21.8706 6.62313V17.3769H21.8707Z" fill="black"/>
<path d="M11.9996 5.81592C8.58961 5.81592 5.81543 8.5901 5.81543 12.0001C5.81543 15.41 8.58961 18.184 11.9996 18.184C15.4096 18.184 18.1838 15.41 18.1838 12.0001C18.1838 8.5901 15.4096 5.81592 11.9996 5.81592ZM11.9996 16.0545C9.7639 16.0545 7.94483 14.2357 7.94483 12C7.94483 9.7641 9.76376 7.94517 11.9996 7.94517C14.2355 7.94517 16.0544 9.7641 16.0544 12C16.0544 14.2357 14.2353 16.0545 11.9996 16.0545Z" fill="black"/>
<path d="M18.4434 4.0105C18.0331 4.0105 17.6301 4.17659 17.3404 4.46761C17.0492 4.75721 16.8818 5.16037 16.8818 5.57206C16.8818 5.98246 17.0493 6.38548 17.3404 6.6765C17.63 6.9661 18.0331 7.13361 18.4434 7.13361C18.8551 7.13361 19.2568 6.9661 19.5478 6.6765C19.8389 6.38548 20.005 5.98232 20.005 5.57206C20.005 5.16037 19.8389 4.75721 19.5478 4.46761C19.2582 4.17659 18.8551 4.0105 18.4434 4.0105Z" fill="black"/>
</symbol><symbol id="lamp-chain" viewBox="0 0 30 56.3">
<ellipse cx="15" cy="8.9" rx="1.2" ry="1.1"/>
<ellipse cx="15" cy="5" rx="1.2" ry="1.1"/>
<ellipse cx="15" cy="1.1" rx="1.2" ry="1.1"/>
<path d="M28.8,26.2c0.1,0,0.2-0.1,0.2-0.2v-0.7h0.7c0.1,0,0.2-0.1,0.2-0.2v-1.3c0-0.1-0.1-0.2-0.2-0.2h-4c-0.6-3.9-6.6-6.3-9.4-7.2
	c0-0.1,0.1-0.2,0.1-0.3c0-0.5-0.3-0.9-0.8-1.1c0.2-0.1,0.3-0.3,0.3-0.5c0-0.3-0.2-0.5-0.5-0.6L15.3,13c0.6-0.1,1-0.5,1-1v-0.1
	c0-0.6-0.6-1-1.2-1s-1.2,0.5-1.2,1V12c0,0.5,0.4,0.9,1,1l-0.1,0.9c-0.3,0.1-0.5,0.4-0.5,0.6s0.1,0.4,0.3,0.5
	c-0.5,0.2-0.8,0.6-0.8,1.1c0,0.1,0,0.2,0.1,0.3c-2.8,0.9-8.8,3.3-9.4,7.2h-4c-0.1,0-0.2,0.1-0.2,0.2v1.3c-0.3,0.1-0.2,0.2-0.1,0.2H1
	v0.6c0,0.1,0.1,0.2,0.2,0.2h0.5v22.5H1.2c-0.1,0-0.2,0.1-0.2,0.2v0.6H0.2c-0.1,0-0.2,0.1-0.2,0.2v1.3c0,0.3,0.1,0.4,0.2,0.4h5.3
	c2.9,3.3,9.5,5,9.5,5s6.6-1.7,9.5-5h5.3c0.1,0,0.2-0.1,0.2-0.2v-1.3c0-0.1-0.1-0.2-0.2-0.2H29V49c0-0.1-0.1-0.2-0.2-0.2h-0.5V26.2
	H28.8z M8.9,47.3H4.5V33c0-3.4,2.2-5.7,2.2-5.7s2.2,2.3,2.2,5.7V47.3L8.9,47.3z M18.9,47.3h-7.7V33c0-3.4,3.9-5.7,3.9-5.7
	S19,29.6,19,33L18.9,47.3L18.9,47.3z M25.5,47.3h-4.4V33c0-3.4,2.2-5.7,2.2-5.7s2.2,2.3,2.2,5.7L25.5,47.3L25.5,47.3z"/>
</symbol><symbol id="lamp" viewBox="0 0 24 36">
<path d="M23.0146 12.1386C23.1241 12.1386 23.2129 12.0648 23.2129 11.9736V11.4676H23.8014C23.9109 11.4676 23.9997 11.3938 23.9997 11.3026V10.2359C23.9997 10.1447 23.9109 10.0709 23.8014 10.0709H20.6089C20.101 6.99457 15.3006 5.11359 13.0967 4.4056C13.1311 4.31828 13.1501 4.22556 13.1501 4.12899C13.1501 3.75449 12.8713 3.43256 12.4715 3.28804C12.614 3.18476 12.7042 3.03573 12.7042 2.86943C12.7042 2.65012 12.5479 2.46006 12.32 2.36679L12.2167 1.68444C12.6602 1.60217 12.9916 1.27353 12.9916 0.879889V0.824896C12.9916 0.369333 12.5478 0 12 0C11.4522 0 11.0084 0.369333 11.0084 0.824896V0.879889C11.0084 1.27353 11.34 1.60217 11.7833 1.68444L11.68 2.36679C11.452 2.46017 11.2958 2.65012 11.2958 2.86943C11.2958 3.03573 11.386 3.18465 11.5283 3.28804C11.1288 3.43245 10.8499 3.75438 10.8499 4.12899C10.8499 4.22545 10.8689 4.31828 10.9033 4.4056C8.69924 5.11359 3.8989 6.99457 3.39106 10.0709H0.198323C0.0888487 10.0709 0 10.1447 0 10.2359V11.3026C0 11.3938 0.0888487 11.4676 0.198323 11.4676H0.786814V11.9736C0.786814 12.0648 0.875663 12.1386 0.985137 12.1386H1.41761V29.9874H0.985137C0.875663 29.9874 0.786814 30.0612 0.786814 30.1524V30.6581H0.198323C0.0888487 30.6581 0 30.7319 0 30.8231V31.8901C0 31.9813 0.0888487 32.0551 0.198323 32.0551H4.4316C6.75462 34.6937 12.0001 36 12.0001 36C12.0001 36 17.2456 34.6937 19.5687 32.0551H23.8017C23.9112 32.0551 24 31.9813 24 31.8901V30.8231C24 30.7319 23.9112 30.6581 23.8017 30.6581H23.2132V30.1524C23.2132 30.0612 23.1243 29.9874 23.0149 29.9874H22.5825V12.1386H23.0146ZM7.11438 28.8581H3.57167V17.5221C3.57167 14.8026 5.34282 13.0205 5.34282 13.0205C5.34282 13.0205 7.11424 14.8026 7.11424 17.5221V28.8581H7.11438ZM15.0871 28.8581H8.91251V17.5221C8.91251 14.8026 12 13.0205 12 13.0205C12 13.0205 15.0872 14.8026 15.0872 17.5221V28.8581H15.0871ZM20.4281 28.8581H16.8854V17.5221C16.8854 14.8026 18.6565 13.0205 18.6565 13.0205C18.6565 13.0205 20.4279 14.8026 20.4279 17.5221V28.8581H20.4281Z" fill="black"/>
</symbol><symbol id="logo-mobile" viewBox="0 0 46.5 20.2">
<path d="M11.4,20l-0.1,0.2h0.2h3.4H15l0,0l3.7-5.9h3.9L19,20l-0.1,0.2h0.2h3.4h0.1l0,0l3.7-5.9H32h0l0,0l2.4-2.2l0.2-0.2h-0.3h-6.6
	L30,8.3h16.2h0.3l-0.2-0.2L44,5.9l0,0h0H31.5l3.6-5.8L35.2,0H35h-3.4h-0.1l0,0l-3.7,5.9h-3.9l3.6-5.8L27.6,0h-0.2H24h-0.1l0,0
	l-3.7,5.9h-5.8h0l0,0L12,8.1l-0.2,0.2H12h6.7l-2.3,3.6H0.3H0l0.2,0.2l2.4,2.2l0,0h0H15L11.4,20z M20.2,11.9l2.3-3.6h3.9l-2.3,3.6
	H20.2z"/>
</symbol><symbol id="logotype" viewBox="0 0 1271.38 136.08"><title>Asset 2</title><g id="Layer_2" data-name="Layer 2"><g id="Layer_2-2" data-name="Layer 2"><path class="cls-1" d="M70.84,136.08H92.49L115.7,95.87h26.07l-23.21,40.21h21.65l23.21-40.21h36.42L214.68,81H172l15-26H289.61L274.77,40.21H195.56L218.77,0H197.13L173.91,40.21H147.84L171.05,0H149.4L126.19,40.21H89.07L74.22,55.05h43.4l-15,26H0L14.84,95.87H94.05Zm68.43-81h26.07l-15,26H124.27Z"/><path class="cls-1" d="M376.51,43.34v62.43H362.07V43.34H344V30.59h51.2V43.34Z"/><path class="cls-1" d="M466.57,105.77l-5.78-19.32H438.54l-5.81,19.32h-15l24.79-75.18H456.8l24.8,75.18ZM457.44,73.7l-7.78-26.06L441.88,73.7Z"/><path class="cls-1" d="M514.65,55.43c0-17.38,11.44-26.41,27.53-26.41,12.81,0,21.15,6,24.58,15.28l-11.43,4.9c-2.63-5.08-6.07-7.43-12.83-7.43-8.67,0-13.41,3.78-13.41,13.66V81.65c0,9.41,6.09,12.46,13,12.46s12.35-3,12.35-12.46V75.72H542.83V63.66h26v42.11H558.33l-.53-6.35c-4,5.22-10.89,7.42-17.65,7.42-12.23,0-25.5-7.64-25.5-25.19Z"/><path class="cls-1" d="M661.82,105.77V63.33L647.74,98.68H637.35l-14-35.35v42.44H609V30.59h14.66l18.93,46.89L661.5,30.59h14.67v75.18Z"/><path class="cls-1" d="M731.41,43.34V61.85H763V74.6H731.41V93h34.78v12.75H717V30.59h48.66V43.34Z"/><path class="cls-1" d="M813.75,83.81c.1,5.94,3.51,10.21,13.77,10.21,8.53,0,12.84-3.64,12.84-9.37,0-6.3-5.79-7.58-14.91-10.33-14.35-4.28-24.16-9-24.16-23,0-13.76,9.21-22,25.16-22,15.79,0,25.6,8.16,25.67,22.6H838.39c-.06-7.19-5-9.94-11.94-9.94s-11.17,3.47-11.17,8.22c0,5,3.37,7.45,15.06,10.38,17.49,4.25,24,11.62,24,24,0,11.53-7.13,22.48-26.19,22.48-17.21,0-28-9.15-28.05-23.25Z"/><path class="cls-1" d="M919.5,43.34v62.43H905.06V43.34H887V30.59h51.2V43.34Z"/><path class="cls-1" d="M1029.21,81.64c0,18.82-15,25.2-27.25,25.2s-27.43-6.34-27.43-25.2V30.58H989V81.64c0,9.41,6.09,12.47,13,12.47s12.82-3,12.82-12.47V30.58h14.43Z"/><path class="cls-1" d="M1095.39,30.59c18.23,0,27.61,11.75,27.61,26.31v25c0,18.24-12.92,23.84-25.78,23.84h-28V30.59ZM1083.67,93h13.55c7.37,0,11.35-2.22,11.35-11.09v-25c0-8.57-4.23-13.56-13.18-13.56h-11.72Z"/><path class="cls-1" d="M1162.67,105.77V30.59h14.44v75.18Z"/><path class="cls-1" d="M1216.7,55.48c0-17.37,11.44-26.4,27.52-26.4,17.41,0,27.16,10.81,27.16,26.5V81.7c0,18.82-15,25.25-27.25,25.25s-27.43-6.39-27.43-25.25Zm40.24.1c0-9.16-4.21-13.75-12.72-13.75s-13.08,3.9-13.08,13.65V81.7c0,9.41,6.09,12.47,13,12.47s12.81-3,12.81-12.47Z"/></g></g></symbol></svg>