<svg xmlns="http://www.w3.org/2000/svg" xmlns:xlink="http://www.w3.org/1999/xlink"><symbol id="arrow-menu" viewBox="0 0 30 20">
<path d="M0,11.7h23.7l-6,6L20,20l10-10L20,0l-2.3,2.3l6,6L0,8.3L0,11.7z"/>
</symbol><symbol id="behance" viewBox="0 0 45 29">
<path d="M40.6383 4.46232H29.3629V1.66161H40.6392V4.46232H40.6383ZM21.8566 15.9471C22.5842 17.074 22.9477 18.4422 22.9477 20.0486C22.9477 21.7098 22.5378 23.2 21.7039 24.5163C21.1734 25.3874 20.5147 26.1232 19.7232 26.7156C18.8318 27.4006 17.7765 27.8704 16.5633 28.1214C15.3463 28.3728 14.029 28.4998 12.61 28.4998H0V0.5H13.5223C16.9308 0.555449 19.3472 1.54297 20.7741 3.48233C21.6303 4.67177 22.0546 6.09901 22.0546 7.75799C22.0546 9.46981 21.6252 10.8395 20.7606 11.8802C20.2797 12.4636 19.5692 12.9944 18.6287 13.4735C20.0533 13.995 21.1342 14.8163 21.8566 15.9471ZM6.45744 11.5389H12.3823C13.5999 11.5389 14.5842 11.3075 15.3423 10.8448C16.0999 10.3829 16.4779 9.56187 16.4779 8.383C16.4779 7.08057 15.9773 6.21609 14.9739 5.80001C14.1114 5.51094 13.0079 5.36206 11.6688 5.36206H6.45744V11.5389ZM17.0484 19.6486C17.0484 18.1942 16.4539 17.1887 15.2674 16.6491C14.6039 16.3425 13.6677 16.1858 12.4674 16.1746H6.45744V23.6364H12.3744C13.59 23.6364 14.5309 23.4772 15.2098 23.1453C16.4343 22.5349 17.0484 21.3733 17.0484 19.6486ZM44.8218 15.0935C44.958 16.0096 45.0196 17.3387 44.9946 19.0759H30.3918C30.4723 21.0916 31.1681 22.5011 32.4878 23.3077C33.2837 23.8136 34.2486 24.0606 35.3785 24.0606C36.57 24.0606 37.541 23.7594 38.2886 23.1402C38.6959 22.812 39.0551 22.3488 39.3657 21.7643H44.7182C44.578 22.9548 43.9335 24.1622 42.7754 25.3892C40.981 27.3394 38.4644 28.3173 35.2325 28.3173C32.5625 28.3173 30.2095 27.4926 28.1671 25.8491C26.1315 24.1998 25.1091 21.5251 25.1091 17.8147C25.1091 14.3353 26.027 11.6722 27.8688 9.81851C29.7175 7.96138 32.1033 7.03705 35.0441 7.03705C36.7871 7.03705 38.3585 7.34861 39.7603 7.97498C41.1577 8.60197 42.3126 9.58876 43.2222 10.945C44.0454 12.1393 44.5747 13.5203 44.8218 15.0935ZM39.5533 15.616C39.4552 14.2222 38.9898 13.1673 38.1519 12.4464C37.3209 11.7235 36.2828 11.3605 35.0441 11.3605C33.6959 11.3605 32.6549 11.7485 31.9152 12.5109C31.1706 13.2718 30.7072 14.3063 30.5173 15.6161H39.5533V15.616Z" fill="black"/>
</symbol><symbol id="dribble" viewBox="0 0 30 30">
<path d="M10.3047 11.5898C11.746 11.3085 13.1524 10.9219 14.4882 10.5C12.7129 7.24799 10.5157 4.31244 7.93164 1.83398C4.13482 3.87299 1.24604 7.51172 0.314453 11.8535C3.10943 12.416 6.5606 12.3457 10.3047 11.5898Z" fill="black"/>
<path d="M24.5263 3.52143L24.2802 4.48822C23.8936 6.0351 20.624 8.24994 16.335 9.84961L16.1415 9.91986C14.4013 6.63275 12.204 3.64447 9.6377 1.06055C11.29 0.410156 13.1005 0 14.9814 0C18.3388 0 21.4677 1.18359 23.9638 3.06439C24.1571 3.20502 24.3506 3.3457 24.5263 3.52143Z" fill="black"/>
<path d="M16.8267 15.7207C16.3697 14.4727 15.8599 13.2598 15.2974 12.082C13.8209 12.5743 12.2565 12.9962 10.6568 13.3125C8.91656 13.6641 6.64904 13.9805 4.25842 13.9805C2.88726 13.9805 1.42242 13.875 0.033808 13.6113C-0.0014068 14.0683 0.0396088 14.5254 0.0396088 15C0.0396088 19.623 2.14898 23.7538 5.43609 26.496C5.45367 26.3906 5.47131 26.2851 5.48877 26.1796C6.1568 22.1368 10.8326 17.8653 16.8267 15.7207Z" fill="black"/>
<path d="M17.4072 17.373C18.6025 21.1348 19.2705 25.2188 19.3407 29.3497C17.9697 29.7716 16.4931 30.0001 14.9814 30.0001C12.1513 30.0001 9.49705 29.1505 7.24699 27.7793C7.1591 27.3574 7.1591 26.918 7.22953 26.4609C7.77445 23.1387 12.1338 19.2891 17.4072 17.373Z" fill="black"/>
<path d="M29.8232 17.1264C29.085 22.2769 25.6689 26.5834 21.0635 28.6401C20.9404 24.562 20.2372 20.5893 19.0596 16.8451C22.9971 15.7553 26.7296 15.8784 29.8232 17.1264Z" fill="black"/>
<path d="M29.9814 14.9999V15.3163C26.6241 14.0682 22.6455 14.0156 18.4971 15.1933C18.04 13.9277 17.5127 12.6973 16.9502 11.502C19.8395 10.4171 25.2317 7.92029 25.9854 4.91016C28.4288 7.56434 29.9814 11.1151 29.9814 14.9999Z" fill="black"/>
</symbol><symbol id="facebook" viewBox="0 0 12 24">
<path d="M2.42086 4.64804C2.42086 5.25285 2.42086 7.95237 2.42086 7.95237H0V11.9929H2.42086V24H7.39381V11.9932H10.7309C10.7309 11.9932 11.0434 10.0558 11.1949 7.93747C10.7606 7.93747 7.41262 7.93747 7.41262 7.93747C7.41262 7.93747 7.41262 5.58681 7.41262 5.17478C7.41262 4.76187 7.95482 4.20644 8.49072 4.20644C9.02561 4.20644 10.1545 4.20644 11.2002 4.20644C11.2002 3.65631 11.2002 1.75551 11.2002 1.44334e-08C9.80429 1.44334e-08 8.21624 1.44334e-08 7.51624 1.44334e-08C2.29793 -0.000278983 2.42086 4.04429 2.42086 4.64804Z" fill="black"/>
</symbol><symbol id="instagram" viewBox="0 0 24 24">
<path d="M17.3767 0H6.62299C2.97108 0 0 2.97122 0 6.62313V17.3769C0 21.0289 2.97108 24 6.62299 24H17.3767C21.0289 24 24 21.0288 24 17.3769V6.62313C24.0001 2.97122 21.0289 0 17.3767 0ZM21.8707 17.3769C21.8707 19.8548 19.8548 21.8706 17.3769 21.8706H6.62299C4.14522 21.8707 2.1294 19.8548 2.1294 17.3769V6.62313C2.1294 4.14537 4.14522 2.1294 6.62299 2.1294H17.3767C19.8546 2.1294 21.8706 4.14537 21.8706 6.62313V17.3769H21.8707Z" fill="black"/>
<path d="M11.9996 5.81592C8.58961 5.81592 5.81543 8.5901 5.81543 12.0001C5.81543 15.41 8.58961 18.184 11.9996 18.184C15.4096 18.184 18.1838 15.41 18.1838 12.0001C18.1838 8.5901 15.4096 5.81592 11.9996 5.81592ZM11.9996 16.0545C9.7639 16.0545 7.94483 14.2357 7.94483 12C7.94483 9.7641 9.76376 7.94517 11.9996 7.94517C14.2355 7.94517 16.0544 9.7641 16.0544 12C16.0544 14.2357 14.2353 16.0545 11.9996 16.0545Z" fill="black"/>
<path d="M18.4434 4.0105C18.0331 4.0105 17.6301 4.17659 17.3404 4.46761C17.0492 4.75721 16.8818 5.16037 16.8818 5.57206C16.8818 5.98246 17.0493 6.38548 17.3404 6.6765C17.63 6.9661 18.0331 7.13361 18.4434 7.13361C18.8551 7.13361 19.2568 6.9661 19.5478 6.6765C19.8389 6.38548 20.005 5.98232 20.005 5.57206C20.005 5.16037 19.8389 4.75721 19.5478 4.46761C19.2582 4.17659 18.8551 4.0105 18.4434 4.0105Z" fill="black"/>
</symbol><symbol id="lamp-chain" viewBox="0 0 30 56.3">
<ellipse cx="15" cy="8.9" rx="1.2" ry="1.1"/>
<ellipse cx="15" cy="5" rx="1.2" ry="1.1"/>
<ellipse cx="15" cy="1.1" rx="1.2" ry="1.1"/>
<path d="M28.8,26.2c0.1,0,0.2-0.1,0.2-0.2v-0.7h0.7c0.1,0,0.2-0.1,0.2-0.2v-1.3c0-0.1-0.1-0.2-0.2-0.2h-4c-0.6-3.9-6.6-6.3-9.4-7.2
	c0-0.1,0.1-0.2,0.1-0.3c0-0.5-0.3-0.9-0.8-1.1c0.2-0.1,0.3-0.3,0.3-0.5c0-0.3-0.2-0.5-0.5-0.6L15.3,13c0.6-0.1,1-0.5,1-1v-0.1
	c0-0.6-0.6-1-1.2-1s-1.2,0.5-1.2,1V12c0,0.5,0.4,0.9,1,1l-0.1,0.9c-0.3,0.1-0.5,0.4-0.5,0.6s0.1,0.4,0.3,0.5
	c-0.5,0.2-0.8,0.6-0.8,1.1c0,0.1,0,0.2,0.1,0.3c-2.8,0.9-8.8,3.3-9.4,7.2h-4c-0.1,0-0.2,0.1-0.2,0.2v1.3c-0.3,0.1-0.2,0.2-0.1,0.2H1
	v0.6c0,0.1,0.1,0.2,0.2,0.2h0.5v22.5H1.2c-0.1,0-0.2,0.1-0.2,0.2v0.6H0.2c-0.1,0-0.2,0.1-0.2,0.2v1.3c0,0.3,0.1,0.4,0.2,0.4h5.3
	c2.9,3.3,9.5,5,9.5,5s6.6-1.7,9.5-5h5.3c0.1,0,0.2-0.1,0.2-0.2v-1.3c0-0.1-0.1-0.2-0.2-0.2H29V49c0-0.1-0.1-0.2-0.2-0.2h-0.5V26.2
	H28.8z M8.9,47.3H4.5V33c0-3.4,2.2-5.7,2.2-5.7s2.2,2.3,2.2,5.7V47.3L8.9,47.3z M18.9,47.3h-7.7V33c0-3.4,3.9-5.7,3.9-5.7
	S19,29.6,19,33L18.9,47.3L18.9,47.3z M25.5,47.3h-4.4V33c0-3.4,2.2-5.7,2.2-5.7s2.2,2.3,2.2,5.7L25.5,47.3L25.5,47.3z"/>
</symbol><symbol id="lamp" viewBox="0 0 24 36">
<path d="M23.0146 12.1386C23.1241 12.1386 23.2129 12.0648 23.2129 11.9736V11.4676H23.8014C23.9109 11.4676 23.9997 11.3938 23.9997 11.3026V10.2359C23.9997 10.1447 23.9109 10.0709 23.8014 10.0709H20.6089C20.101 6.99457 15.3006 5.11359 13.0967 4.4056C13.1311 4.31828 13.1501 4.22556 13.1501 4.12899C13.1501 3.75449 12.8713 3.43256 12.4715 3.28804C12.614 3.18476 12.7042 3.03573 12.7042 2.86943C12.7042 2.65012 12.5479 2.46006 12.32 2.36679L12.2167 1.68444C12.6602 1.60217 12.9916 1.27353 12.9916 0.879889V0.824896C12.9916 0.369333 12.5478 0 12 0C11.4522 0 11.0084 0.369333 11.0084 0.824896V0.879889C11.0084 1.27353 11.34 1.60217 11.7833 1.68444L11.68 2.36679C11.452 2.46017 11.2958 2.65012 11.2958 2.86943C11.2958 3.03573 11.386 3.18465 11.5283 3.28804C11.1288 3.43245 10.8499 3.75438 10.8499 4.12899C10.8499 4.22545 10.8689 4.31828 10.9033 4.4056C8.69924 5.11359 3.8989 6.99457 3.39106 10.0709H0.198323C0.0888487 10.0709 0 10.1447 0 10.2359V11.3026C0 11.3938 0.0888487 11.4676 0.198323 11.4676H0.786814V11.9736C0.786814 12.0648 0.875663 12.1386 0.985137 12.1386H1.41761V29.9874H0.985137C0.875663 29.9874 0.786814 30.0612 0.786814 30.1524V30.6581H0.198323C0.0888487 30.6581 0 30.7319 0 30.8231V31.8901C0 31.9813 0.0888487 32.0551 0.198323 32.0551H4.4316C6.75462 34.6937 12.0001 36 12.0001 36C12.0001 36 17.2456 34.6937 19.5687 32.0551H23.8017C23.9112 32.0551 24 31.9813 24 31.8901V30.8231C24 30.7319 23.9112 30.6581 23.8017 30.6581H23.2132V30.1524C23.2132 30.0612 23.1243 29.9874 23.0149 29.9874H22.5825V12.1386H23.0146ZM7.11438 28.8581H3.57167V17.5221C3.57167 14.8026 5.34282 13.0205 5.34282 13.0205C5.34282 13.0205 7.11424 14.8026 7.11424 17.5221V28.8581H7.11438ZM15.0871 28.8581H8.91251V17.5221C8.91251 14.8026 12 13.0205 12 13.0205C12 13.0205 15.0872 14.8026 15.0872 17.5221V28.8581H15.0871ZM20.4281 28.8581H16.8854V17.5221C16.8854 14.8026 18.6565 13.0205 18.6565 13.0205C18.6565 13.0205 20.4279 14.8026 20.4279 17.5221V28.8581H20.4281Z" fill="black"/>
</symbol><symbol id="logo-mobile" viewBox="0 0 46.5 20.2">
<path d="M11.4,20l-0.1,0.2h0.2h3.4H15l0,0l3.7-5.9h3.9L19,20l-0.1,0.2h0.2h3.4h0.1l0,0l3.7-5.9H32h0l0,0l2.4-2.2l0.2-0.2h-0.3h-6.6
	L30,8.3h16.2h0.3l-0.2-0.2L44,5.9l0,0h0H31.5l3.6-5.8L35.2,0H35h-3.4h-0.1l0,0l-3.7,5.9h-3.9l3.6-5.8L27.6,0h-0.2H24h-0.1l0,0
	l-3.7,5.9h-5.8h0l0,0L12,8.1l-0.2,0.2H12h6.7l-2.3,3.6H0.3H0l0.2,0.2l2.4,2.2l0,0h0H15L11.4,20z M20.2,11.9l2.3-3.6h3.9l-2.3,3.6
	H20.2z"/>
</symbol><symbol id="logotype" viewBox="0 0 1271.4 136.1">
<title>Asset 2</title>
<g id="Layer_2">
	<g id="Layer_2-2">
		<path d="M70.8,136.1h21.7l23.2-40.2h26.1l-23.2,40.2h21.7l23.2-40.2h36.4L214.7,81H172l15-26h102.6l-14.8-14.8h-79.2L218.8,0
			h-21.6l-23.2,40.2h-26.1L171.1,0h-21.7l-23.2,40.2H89.1L74.2,55h43.4l-15,26H0l14.8,14.8h79.2L70.8,136.1z M139.3,55.1h26.1
			l-15,26h-26.1L139.3,55.1z"/>
		<path d="M376.5,43.3v62.4h-14.4V43.3H344V30.6h51.2v12.8H376.5z"/>
		<path d="M466.6,105.8l-5.8-19.3h-22.3l-5.8,19.3h-15l24.8-75.2h14.3l24.8,75.2H466.6z M457.4,73.7l-7.8-26.1l-7.8,26.1H457.4z"/>
		<path d="M514.7,55.4c0-17.4,11.4-26.4,27.5-26.4c12.8,0,21.2,6,24.6,15.3l-11.4,4.9c-2.6-5.1-6.1-7.4-12.8-7.4
			c-8.7,0-13.4,3.8-13.4,13.7v26.2c0,9.4,6.1,12.5,13,12.5s12.3-3,12.3-12.5v-5.9h-11.6V63.7h26v42.1h-10.5l-0.5-6.3
			c-4,5.2-10.9,7.4-17.7,7.4c-12.2,0-25.5-7.6-25.5-25.2L514.7,55.4z"/>
		<path d="M661.8,105.8V63.3l-14.1,35.3h-10.4l-14-35.3v42.4H609V30.6h14.7l18.9,46.9l18.9-46.9h14.7v75.2L661.8,105.8z"/>
		<path d="M731.4,43.3v18.5H763v12.8h-31.6V93h34.8v12.8H717V30.6h48.7v12.8H731.4z"/>
		<path d="M813.8,83.8c0.1,5.9,3.5,10.2,13.8,10.2c8.5,0,12.8-3.6,12.8-9.4c0-6.3-5.8-7.6-14.9-10.3c-14.3-4.3-24.2-9-24.2-23
			c0-13.8,9.2-22,25.2-22c15.8,0,25.6,8.2,25.7,22.6h-13.7c-0.1-7.2-5-9.9-11.9-9.9s-11.2,3.5-11.2,8.2c0,5,3.4,7.5,15.1,10.4
			c17.5,4.3,24,11.6,24,24c0,11.5-7.1,22.5-26.2,22.5c-17.2,0-28-9.2-28-23.3H813.8z"/>
		<path d="M919.5,43.3v62.4h-14.4V43.3H887V30.6h51.2v12.8H919.5z"/>
		<path d="M1029.2,81.6c0,18.8-15,25.2-27.3,25.2s-27.4-6.3-27.4-25.2V30.6H989v51.1c0,9.4,6.1,12.5,13,12.5s12.8-3,12.8-12.5V30.6
			h14.4L1029.2,81.6z"/>
		<path d="M1095.4,30.6c18.2,0,27.6,11.8,27.6,26.3v25c0,18.2-12.9,23.8-25.8,23.8h-28V30.6H1095.4z M1083.7,93h13.6
			c7.4,0,11.3-2.2,11.3-11.1v-25c0-8.6-4.2-13.6-13.2-13.6h-11.7V93z"/>
		<path d="M1162.7,105.8V30.6h14.4v75.2L1162.7,105.8z"/>
		<path d="M1216.7,55.5c0-17.4,11.4-26.4,27.5-26.4c17.4,0,27.2,10.8,27.2,26.5v26.1c0,18.8-15,25.3-27.3,25.3s-27.4-6.4-27.4-25.3
			V55.5z M1256.9,55.6c0-9.2-4.2-13.8-12.7-13.8s-13.1,3.9-13.1,13.6v26.2c0,9.4,6.1,12.5,13,12.5s12.8-3,12.8-12.5L1256.9,55.6z"/>
	</g>
</g>
</symbol><symbol id="play" viewBox="0 0 30.051 30.051">
<g>
	<path d="M19.982,14.438l-6.24-4.536c-0.229-0.166-0.533-0.191-0.784-0.062c-0.253,0.128-0.411,0.388-0.411,0.669v9.069
		c0,0.284,0.158,0.543,0.411,0.671c0.107,0.054,0.224,0.081,0.342,0.081c0.154,0,0.31-0.049,0.442-0.146l6.24-4.532
		c0.197-0.145,0.312-0.369,0.312-0.607C20.295,14.803,20.177,14.58,19.982,14.438z"/>
	<path d="M15.026,0.002C6.726,0.002,0,6.728,0,15.028c0,8.297,6.726,15.021,15.026,15.021c8.298,0,15.025-6.725,15.025-15.021
		C30.052,6.728,23.324,0.002,15.026,0.002z M15.026,27.542c-6.912,0-12.516-5.601-12.516-12.514c0-6.91,5.604-12.518,12.516-12.518
		c6.911,0,12.514,5.607,12.514,12.518C27.541,21.941,21.937,27.542,15.026,27.542z"/>
	<g>
	</g>
	<g>
	</g>
	<g>
	</g>
	<g>
	</g>
	<g>
	</g>
	<g>
	</g>
	<g>
	</g>
	<g>
	</g>
	<g>
	</g>
	<g>
	</g>
	<g>
	</g>
	<g>
	</g>
	<g>
	</g>
	<g>
	</g>
	<g>
	</g>
</g>
<g>
</g>
<g>
</g>
<g>
</g>
<g>
</g>
<g>
</g>
<g>
</g>
<g>
</g>
<g>
</g>
<g>
</g>
<g>
</g>
<g>
</g>
<g>
</g>
<g>
</g>
<g>
</g>
<g>
</g>
</symbol><symbol id="to-top" viewBox="0 0 20 30">
<path d="M11.6667 30L11.6667 6.33333L17.6667 12.3333L20 10L10 0L1.90735e-06 10L2.33334 12.3333L8.33333 6.33333L8.33333 30H11.6667Z" fill="black"/>
</symbol></svg>